<?xml version="1.0" encoding="utf-8"?>
<!-- Generator: Adobe Illustrator 22.1.0, SVG Export Plug-In . SVG Version: 6.00 Build 0)  -->
<svg version="1.1" id="Livello_1" xmlns="http://www.w3.org/2000/svg" xmlns:xlink="http://www.w3.org/1999/xlink" x="0px" y="0px"
	 viewBox="0 0 45 45" style="enable-background:new 0 0 45 45;" xml:space="preserve">
<style type="text/css">
	.st0{stroke:#000000;stroke-width:1.5;stroke-linejoin:round;}
	.st1{fill:none;stroke:#FFFFFF;stroke-width:1.5;stroke-linecap:round;}
</style>
<g transform="translate(90,45)">
	<g>
		<path class="st0" d="M-80.5-8.3c3.4-1,10.1,0.4,13.5-2c3.4,2.4,10.1,1,13.5,2c0,0,1.7,0.5,3,2c-0.7,1-1.7,1-3,0.5
			c-3.4-1-10.1,0.5-13.5-1c-3.4,1.5-10.1,0-13.5,1c-1.4,0.5-2.3,0.5-3-0.5C-82.1-8.2-80.5-8.3-80.5-8.3z"/>
		<path class="st0" d="M-74.5-12.3c2.5,2.5,12.5,2.5,15,0c0.5-1.5,0-2,0-2c0-2.5-2.5-4-2.5-4c5.5-1.5,6-11.5-5-15.5
			c-11,4-10.5,14-5,15.5c0,0-2.5,1.5-2.5,4C-74.5-14.3-75-13.8-74.5-12.3z"/>
		<path class="st0" d="M-64.5-36.3c0,1.4-1.1,2.5-2.5,2.5s-2.5-1.1-2.5-2.5s1.1-2.5,2.5-2.5S-64.5-37.6-64.5-36.3z"/>
	</g>
	<path class="st1" d="M-72-18.3h10 M-74.5-14.3h15 M-67-28.8v5 M-69.5-26.3h5"/>
</g>
</svg>
