<?xml version="1.0" encoding="utf-8"?>
<!-- Generator: Adobe Illustrator 22.1.0, SVG Export Plug-In . SVG Version: 6.00 Build 0)  -->
<svg version="1.1" id="Livello_1" xmlns="http://www.w3.org/2000/svg" xmlns:xlink="http://www.w3.org/1999/xlink" x="0px" y="0px"
	 viewBox="0 0 45 45" style="enable-background:new 0 0 45 45;" xml:space="preserve">
<style type="text/css">
	.st0{fill:none;stroke:#000000;stroke-width:1.5;stroke-linecap:round;}
	.st1{fill:#FFFFFF;stroke:#000000;stroke-width:1.5;}
	.st2{fill:#FFFFFF;stroke:#000000;stroke-width:1.5;stroke-linecap:round;stroke-linejoin:round;}
	.st3{fill:none;stroke:#000000;stroke-width:1.5;stroke-linecap:round;stroke-linejoin:round;}
</style>
<g transform="translate(0,0)">
	<path class="st0" d="M23,11.4V5.8"/>
	<path class="st0" d="M20.5,7.8h5"/>
	<path class="st1" d="M23,24.8c0,0,4.5-7.5,3-10.5c0,0-1-2.5-3-2.5s-3,2.5-3,2.5C18.5,17.3,23,24.8,23,24.8"/>
	<path class="st2" d="M12,36.8c5.5,3.5,15.5,3.5,21,0v-7c0,0,9-4.5,6-10.5c-4-6.5-13.5-3.5-16,4v3.5v-3.5c-3.5-7.5-13-10.5-16-4
		c-3,6,5,10,5,10V36.8z"/>
	<path class="st3" d="M12,29.8c5.5-3,15.5-3,21,0"/>
	<path class="st3" d="M12,33.3c5.5-3,15.5-3,21,0"/>
	<path class="st3" d="M12,36.8c5.5-3,15.5-3,21,0"/>
</g>
</svg>
