<?xml version="1.0" encoding="utf-8"?>
<!-- Generator: Adobe Illustrator 22.1.0, SVG Export Plug-In . SVG Version: 6.00 Build 0)  -->
<svg version="1.1" id="Livello_1" xmlns="http://www.w3.org/2000/svg" xmlns:xlink="http://www.w3.org/1999/xlink" x="0px" y="0px"
	 viewBox="0 0 45 45" style="enable-background:new 0 0 45 45;" xml:space="preserve">
<style type="text/css">
	.st0{fill:none;stroke:#000000;stroke-width:1.5;stroke-linecap:round;}
	.st1{stroke:#000000;stroke-width:1.5;}
	.st2{stroke:#000000;stroke-width:1.5;stroke-linecap:round;stroke-linejoin:round;}
	.st3{fill:none;stroke:#FFFFFF;stroke-width:1.5;stroke-linecap:round;stroke-linejoin:round;}
</style>
<g transform="translate(0,45)">
	<path class="st0" d="M23-33.6v-5.6"/>
	<path class="st1" d="M23-20.3c0,0,4.5-7.5,3-10.5c0,0-1-2.5-3-2.5s-3,2.5-3,2.5C18.5-27.8,23-20.3,23-20.3"/>
	<path class="st2" d="M12-8.3c5.5,3.5,15.5,3.5,21,0v-7c0,0,9-4.5,6-10.5c-4-6.5-13.5-3.5-16,4v3.5v-3.5c-3.5-7.5-13-10.5-16-4
		c-3,6,5,10,5,10V-8.3z"/>
	<path class="st0" d="M20.5-37.3h5"/>
	<path class="st3" d="M32.5-15.8c0,0,8.5-4,6-9.6c-3.9-5.9-13-1.9-15.5,4.6l0,2.1l0-2.1c-2.5-6.5-12.6-10.5-15.5-4.6
		c-2.5,5.6,4.9,9,4.9,9"/>
	<path class="st3" d="M12-15.3c5.5-3,15.5-3,21,0 M12-11.8c5.5-3,15.5-3,21,0 M12-8.3c5.5-3,15.5-3,21,0"/>
</g>
</svg>
