<?xml version="1.0" encoding="utf-8"?>
<!-- Generator: Adobe Illustrator 22.1.0, SVG Export Plug-In . SVG Version: 6.00 Build 0)  -->
<svg version="1.1" id="Livello_1" xmlns="http://www.w3.org/2000/svg" xmlns:xlink="http://www.w3.org/1999/xlink" x="0px" y="0px"
	 viewBox="0 0 45 45" style="enable-background:new 0 0 45 45;" xml:space="preserve">
<style type="text/css">
	.st0{fill:#FFFFFF;stroke:#000000;stroke-width:1.5;stroke-linecap:round;}
</style>
<g transform="translate(225,0)">
	<path class="st0" d="M-202.5,7.8c-2.2,0-4,1.8-4,4c0,0.9,0.3,1.7,0.8,2.4c-1.9,1.1-3.3,3.2-3.3,5.6c0,2,0.9,3.8,2.4,5
		c-3,1.1-7.4,5.5-7.4,13.5h23c0-7.9-4.4-12.4-7.4-13.5c1.5-1.2,2.4-3,2.4-5c0-2.4-1.3-4.5-3.3-5.6c0.5-0.7,0.8-1.5,0.8-2.4
		C-198.5,9.5-200.3,7.8-202.5,7.8z"/>
</g>
</svg>
