<?xml version="1.0" encoding="utf-8"?>
<!-- Generator: Adobe Illustrator 22.1.0, SVG Export Plug-In . SVG Version: 6.00 Build 0)  -->
<svg version="1.1" id="Livello_1" xmlns="http://www.w3.org/2000/svg" xmlns:xlink="http://www.w3.org/1999/xlink" x="0px" y="0px"
	 viewBox="0 0 45 45" style="enable-background:new 0 0 45 45;" xml:space="preserve">
<style type="text/css">
	.st0{fill:#FFFFFF;stroke:#000000;stroke-width:1.5;stroke-linecap:round;stroke-linejoin:round;}
	.st1{fill:#FFFFFF;stroke:#000000;stroke-width:1.5;stroke-linejoin:round;}
	.st2{fill:none;stroke:#000000;stroke-width:1.5;stroke-linecap:round;stroke-linejoin:round;}
</style>
<g transform="translate(45,0)">
	<path class="st0" d="M-37.5,11.8c0,1.1-0.9,2-2,2s-2-0.9-2-2s0.9-2,2-2S-37.5,10.6-37.5,11.8z"/>
	<path class="st0" d="M-21,7.3c0,1.1-0.9,2-2,2s-2-0.9-2-2s0.9-2,2-2S-21,6.1-21,7.3z"/>
	<path class="st0" d="M-4.5,11.8c0,1.1-0.9,2-2,2s-2-0.9-2-2s0.9-2,2-2S-4.5,10.6-4.5,11.8z"/>
	<path class="st0" d="M-29.5,8.3c0,1.1-0.9,2-2,2s-2-0.9-2-2s0.9-2,2-2S-29.5,7.1-29.5,8.3z"/>
	<path class="st0" d="M-12.5,8.8c0,1.1-0.9,2-2,2s-2-0.9-2-2s0.9-2,2-2S-12.5,7.6-12.5,8.8z"/>
	<path class="st1" d="M-36.5,25.8c8.5-1.5,21-1.5,27,0l2-12l-7,11v-14L-20,24.3l-3-15l-3,15l-5.5-14v14.5l-7-11L-36.5,25.8z"/>
	<path class="st1" d="M-36.5,25.8c0,2,1.5,2,2.5,4c1,1.5,1,1,0.5,3.5c-1.5,1-1.5,2.5-1.5,2.5c-1.5,1.5,0.5,2.5,0.5,2.5
		c6.5,1,16.5,1,23,0c0,0,1.5-1,0-2.5c0,0,0.5-1.5-1-2.5c-0.5-2.5-0.5-2,0.5-3.5c1-2,2.5-2,2.5-4C-18,24.3-28,24.3-36.5,25.8z"/>
	<path class="st2" d="M-34,29.8c3.5-1,18.5-1,22,0"/>
	<path class="st2" d="M-33.5,33.3c6-1,15-1,21,0"/>
</g>
</svg>
