<?xml version="1.0" encoding="utf-8"?>
<!-- Generator: Adobe Illustrator 22.1.0, SVG Export Plug-In . SVG Version: 6.00 Build 0)  -->
<svg version="1.1" id="Livello_1" xmlns="http://www.w3.org/2000/svg" xmlns:xlink="http://www.w3.org/1999/xlink" x="0px" y="0px"
	 viewBox="0 0 45 45" style="enable-background:new 0 0 45 45;" xml:space="preserve">
<style type="text/css">
	.st0{stroke:#000000;stroke-width:1.5;stroke-linejoin:round;}
	.st1{fill:none;stroke:#000000;stroke-width:1.5;stroke-linejoin:round;}
	.st2{fill:none;stroke:#FFFFFF;stroke-width:1.5;stroke-linecap:round;stroke-linejoin:round;}
</style>
<g transform="translate(45,45)">
	<g>
		<circle cx="-38.5" cy="-33.3" r="2.8"/>
		<circle cx="-30.5" cy="-36.3" r="2.8"/>
		<circle cx="-22" cy="-37.3" r="2.8"/>
		<circle cx="-13.5" cy="-36.3" r="2.8"/>
		<circle cx="-5.5" cy="-33.3" r="2.8"/>
	</g>
	<path class="st0" d="M-35.5-19.3c8.5-1.5,21-1.5,27,0L-6-31.8l-7.5,11.5l-0.3-14.1L-19-20.8l-3-14.5l-3,14.5l-5.2-13.6l-0.3,14.1
		L-38-31.8L-35.5-19.3z"/>
	<path class="st0" d="M-35.5-19.3c0,2,1.5,2,2.5,4c1,1.5,1,1,0.5,3.5c-1.5,1-1.5,2.5-1.5,2.5c-1.5,1.5,0.5,2.5,0.5,2.5
		c6.5,1,16.5,1,23,0c0,0,1.5-1,0-2.5c0,0,0.5-1.5-1-2.5c-0.5-2.5-0.5-2,0.5-3.5c1-2,2.5-2,2.5-4C-17-20.8-27-20.8-35.5-19.3z"/>
	<path class="st1" d="M-33.5-6.8c7.4,2.6,15.6,2.6,23,0"/>
	<path class="st2" d="M-33.5-16.3c7.4-2.6,15.6-2.6,23,0"/>
	<path class="st2" d="M-32-13.8h20"/>
	<path class="st2" d="M-33-10.8c7.1,2.4,14.9,2.4,22,0"/>
	<path class="st2" d="M-34-7.8c7.7,2.8,16.3,2.8,24,0"/>
</g>
</svg>
