<?xml version="1.0" encoding="utf-8"?>
<!-- Generator: Adobe Illustrator 22.1.0, SVG Export Plug-In . SVG Version: 6.00 Build 0)  -->
<svg version="1.1" id="Livello_1" xmlns="http://www.w3.org/2000/svg" xmlns:xlink="http://www.w3.org/1999/xlink" x="0px" y="0px"
	 viewBox="0 0 45 45" style="enable-background:new 0 0 45 45;" xml:space="preserve">
<style type="text/css">
	.st0{stroke:#000000;stroke-width:1.5;stroke-linejoin:round;}
	.st1{stroke:#000000;stroke-width:1.5;}
	.st2{fill:none;stroke:#FFFFFF;stroke-linecap:round;}
</style>
<g transform="translate(180,45)">
	<path class="st0" d="M-170.5-7.3h27v-3h-27V-7.3z"/>
	<path class="st0" d="M-167-14.3l1.5-2.5h17l1.5,2.5H-167z"/>
	<path class="st0" d="M-167.5-10.3v-4h21v4H-167.5z"/>
	<path class="st1" d="M-165.5-16.8v-13h17v13H-165.5z"/>
	<path class="st0" d="M-165.5-29.8l-3-2.5h23l-3,2.5H-165.5z"/>
	<path class="st0" d="M-168.5-32.3v-5h4v2h5v-2h5v2h5v-2h4v5H-168.5z"/>
	<path class="st2" d="M-167.5-10.8h21l0,0"/>
	<path class="st2" d="M-166.5-14.8h19"/>
	<path class="st2" d="M-165.5-16.8h17"/>
	<path class="st2" d="M-165.5-29.8h17"/>
	<path class="st2" d="M-168.5-32.3h23"/>
</g>
</svg>
